<svg width="14" height="14" viewBox="0 0 14 14" fill="none" xmlns="http://www.w3.org/2000/svg">
<g clip-path="url(#clip0_212_1098)">
<path d="M8.21947 13.4867L10.5003 11.2292C10.555 11.1749 10.5984 11.1104 10.628 11.0393C10.6576 10.9683 10.6729 10.892 10.6729 10.815C10.6729 10.738 10.6576 10.6617 10.628 10.5907C10.5984 10.5196 10.555 10.4551 10.5003 10.4008C10.391 10.2922 10.2432 10.2312 10.0891 10.2312C9.93494 10.2312 9.7871 10.2922 9.6778 10.4008L7.58364 12.4775L7.58364 0.583333C7.58364 0.428624 7.52218 0.28025 7.41278 0.170854C7.30339 0.061458 7.15501 -1.57447e-07 7.0003 -1.64372e-07C6.84559 -1.71296e-07 6.69722 0.061458 6.58782 0.170854C6.47843 0.28025 6.41697 0.428624 6.41697 0.583333L6.41697 12.5125L4.31113 10.4008C4.25691 10.3462 4.19239 10.3028 4.12131 10.2731C4.05022 10.2435 3.97398 10.2283 3.89697 10.2283C3.81996 10.2283 3.74372 10.2435 3.67263 10.2731C3.60155 10.3028 3.53703 10.3462 3.4828 10.4008C3.42813 10.4551 3.38473 10.5196 3.35511 10.5907C3.3255 10.6617 3.31025 10.738 3.31025 10.815C3.31025 10.892 3.3255 10.9683 3.35511 11.0393C3.38473 11.1104 3.42813 11.1749 3.4828 11.2292L5.74614 13.4867C6.07426 13.8144 6.51905 13.9985 6.9828 13.9985C7.44655 13.9985 7.89134 13.8144 8.21947 13.4867Z" fill="white"/>
</g>
<defs>
<clipPath id="clip0_212_1098">
<rect width="14" height="14" fill="white" transform="translate(14) rotate(90)"/>
</clipPath>
</defs>
</svg>
