<svg width="100" height="100" viewBox="0 0 100 100" fill="none" xmlns="http://www.w3.org/2000/svg">
<path d="M50 55.6875C45.6634 55.6926 41.4591 54.1945 38.103 51.4481C34.7469 48.7017 32.4466 44.8769 31.5937 40.625C31.5258 40.1771 31.556 39.7198 31.6823 39.2847C31.8086 38.8497 32.028 38.4473 32.3252 38.1055C32.6225 37.7636 32.9905 37.4905 33.4038 37.305C33.8171 37.1195 34.2658 37.0261 34.7187 37.0312C35.4632 37.0204 36.1871 37.2757 36.76 37.7513C37.3329 38.2268 37.7172 38.8912 37.8437 39.625C38.4323 42.4341 39.9696 44.9551 42.1974 46.7646C44.4253 48.5741 47.208 49.5617 50.0781 49.5617C52.9482 49.5617 55.7309 48.5741 57.9588 46.7646C60.1866 44.9551 61.724 42.4341 62.3125 39.625C62.439 38.8912 62.8233 38.2268 63.3962 37.7513C63.9691 37.2757 64.693 37.0204 65.4375 37.0312C65.8905 37.0261 66.3392 37.1195 66.7524 37.305C67.1657 37.4905 67.5338 37.7636 67.831 38.1055C68.1283 38.4473 68.3477 38.8497 68.474 39.2847C68.6003 39.7198 68.6305 40.1771 68.5625 40.625C67.7045 44.9033 65.3812 48.7485 61.9929 51.4979C58.6045 54.2474 54.3633 55.729 50 55.6875Z" fill="white"/>
<path d="M77.8125 96.875H22.1875C20.9159 96.8766 19.6573 96.6195 18.4882 96.1193C17.3191 95.6191 16.264 94.8863 15.387 93.9655C14.51 93.0447 13.8295 91.9551 13.387 90.763C12.9444 89.5709 12.7489 88.3013 12.8125 87.0313L15.3438 33.1563C15.4485 30.7409 16.4823 28.4595 18.2292 26.7882C19.9762 25.117 22.3012 24.1852 24.7188 24.1875H75.2813C77.6989 24.1852 80.0239 25.117 81.7708 26.7882C83.5177 28.4595 84.5515 30.7409 84.6563 33.1563L87.1875 87.0313C87.2511 88.3013 87.0556 89.5709 86.6131 90.763C86.1705 91.9551 85.49 93.0447 84.613 93.9655C83.7361 94.8863 82.6809 95.6191 81.5118 96.1193C80.3427 96.6195 79.0841 96.8766 77.8125 96.875ZM24.7188 30.4688C23.89 30.4688 23.0951 30.798 22.5091 31.384C21.923 31.9701 21.5938 32.765 21.5938 33.5938L19.0625 87.3438C19.0413 87.7671 19.1065 88.1903 19.254 88.5877C19.4015 88.985 19.6283 89.3482 19.9207 89.6552C20.213 89.9621 20.5647 90.2064 20.9544 90.3731C21.3441 90.5398 21.7636 90.6255 22.1875 90.625H77.8125C78.2364 90.6255 78.6559 90.5398 79.0456 90.3731C79.4353 90.2064 79.787 89.9621 80.0794 89.6552C80.3717 89.3482 80.5985 88.985 80.746 88.5877C80.8936 88.1903 80.9587 87.7671 80.9375 87.3438L78.4063 33.4688C78.4063 32.64 78.077 31.8451 77.491 31.259C76.9049 30.673 76.1101 30.3438 75.2813 30.3438L24.7188 30.4688Z" fill="white"/>
<path d="M68.75 27.3438H62.5V21.875C62.5 18.5598 61.183 15.3804 58.8388 13.0362C56.4946 10.692 53.3152 9.375 50 9.375C46.6848 9.375 43.5054 10.692 41.1612 13.0362C38.817 15.3804 37.5 18.5598 37.5 21.875V27.3438H31.25V21.875C31.25 16.9022 33.2254 12.1331 36.7417 8.61675C40.2581 5.10044 45.0272 3.125 50 3.125C54.9728 3.125 59.7419 5.10044 63.2583 8.61675C66.7746 12.1331 68.75 16.9022 68.75 21.875V27.3438Z" fill="white"/>
</svg>
