<svg width="80" height="80" viewBox="0 0 80 80" fill="none" xmlns="http://www.w3.org/2000/svg">
<g clip-path="url(#clip0_610_379)">
<path d="M40 31.8367C35.4987 31.8367 31.8367 35.4987 31.8367 40C31.8367 44.5012 35.4987 48.1632 40 48.1632C44.5012 48.1632 48.1632 44.5012 48.1632 40C48.1632 35.4987 44.5012 31.8367 40 31.8367Z" fill="white"/>
<path d="M13.8775 0H2.44891C1.09656 0 0 1.09656 0 2.44891V13.8775C0 15.23 1.09656 16.3264 2.44891 16.3264C3.80141 16.3264 4.89781 15.2298 4.89781 13.8775V4.89797H13.8773C15.2298 4.89797 16.3262 3.80141 16.3262 2.44906C16.3266 1.09656 15.23 0 13.8775 0Z" fill="white"/>
<path d="M13.8775 75.102H4.89797V66.1225C4.89797 64.77 3.80141 63.6736 2.44906 63.6736C1.09656 63.6734 0 64.77 0 66.1225V77.5511C0 78.9034 1.09656 80 2.44891 80H13.8775C15.23 80 16.3264 78.9034 16.3264 77.5511C16.3264 76.1987 15.23 75.102 13.8775 75.102Z" fill="white"/>
<path d="M77.5504 0H66.1218C64.7693 0 63.6729 1.09656 63.6729 2.44891C63.6729 3.80141 64.7694 4.89781 66.1218 4.89781H75.1013V13.8773C75.1013 15.2298 76.1979 16.3262 77.5502 16.3262C78.9025 16.3262 79.9991 15.2297 79.9991 13.8773V2.44891C79.9994 1.09656 78.9029 0 77.5504 0Z" fill="white"/>
<path d="M77.55 63.6735C76.1975 63.6735 75.101 64.77 75.101 66.1224V75.1019H66.1215C64.769 75.1019 63.6726 76.1985 63.6726 77.5508C63.6726 78.9031 64.7689 80 66.1214 80H77.55C78.9025 80 79.9989 78.9035 79.9989 77.5511V66.1225C79.999 64.77 78.9025 63.6735 77.55 63.6735Z" fill="white"/>
<path d="M79.6707 38.7738C71.7253 25.0391 56.8875 15.875 40 15.875C23.1023 15.875 8.26965 25.0475 0.32918 38.7738C-0.109727 39.5325 -0.109727 40.4677 0.32918 41.2262C8.27465 54.9609 23.1125 64.125 40 64.125C56.8976 64.125 71.7303 54.9525 79.6707 41.2262C80.1097 40.4677 80.1097 39.5323 79.6707 38.7738ZM40 56.3266C30.9975 56.3266 23.6734 49.0025 23.6734 40C23.6734 30.9975 30.9975 23.6734 40 23.6734C49.0025 23.6734 56.3265 30.9975 56.3265 40C56.3265 49.0025 49.0025 56.3266 40 56.3266Z" fill="white"/>
</g>
<defs>
<clipPath id="clip0_610_379">
<rect width="80" height="80" fill="white"/>
</clipPath>
</defs>
</svg>
