<svg width="100" height="100" viewBox="0 0 100 100" fill="none" xmlns="http://www.w3.org/2000/svg">
<path d="M92.0844 40.9375C91.2786 39.6963 90.6042 38.3746 90.0719 36.9938C89.6674 35.4974 89.4181 33.9632 89.3281 32.4157C89.2874 29.2141 88.3826 26.083 86.7094 23.3532C84.615 20.9063 81.8985 19.0708 78.8469 18.0407C77.4169 17.4853 76.0482 16.7837 74.7625 15.9469C73.5874 14.9852 72.515 13.9045 71.5625 12.7219C69.6331 10.109 67.0254 8.07401 64.0219 6.83754C60.9387 6.1029 57.7147 6.21083 54.6875 7.15005C53.1537 7.54922 51.583 7.79006 50 7.86879C48.417 7.7903 46.8463 7.54946 45.3125 7.15005C42.2849 6.21373 39.0616 6.10582 35.9781 6.83754C32.9759 8.07623 30.3687 10.1108 28.4375 12.7219C27.4827 13.8939 26.4104 14.9651 25.2375 15.9188C23.9531 16.7551 22.5854 17.4557 21.1562 18.0094C18.1028 19.0377 15.3848 20.8734 13.2906 23.3219C11.6191 26.0525 10.7145 29.1831 10.6719 32.3844C10.58 33.9328 10.3308 35.4678 9.92813 36.9657C9.39762 38.3562 8.72312 39.6874 7.91562 40.9375C6.01139 43.601 4.87331 46.7353 4.625 50C4.87051 53.2702 6.00871 56.4103 7.91562 59.0782C8.72138 60.3194 9.39584 61.6411 9.92813 63.0219C10.3311 64.5187 10.5803 66.0527 10.6719 67.6C10.7126 70.8016 11.6174 73.9327 13.2906 76.6625C15.385 79.1094 18.1015 80.9449 21.1531 81.975C22.5831 82.5304 23.9518 83.2321 25.2375 84.0688C26.4118 85.0256 27.4841 86.1011 28.4375 87.2782C30.3671 89.8916 32.9747 91.9275 35.9781 93.1657C39.0612 93.9019 42.2856 93.7939 45.3125 92.8532C46.8463 92.454 48.417 92.2132 50 92.1344C51.583 92.2129 53.1537 92.4538 54.6875 92.8532C56.6016 93.3431 58.5629 93.6249 60.5375 93.6938C61.719 93.7054 62.895 93.5303 64.0219 93.175C67.0256 91.9329 69.633 89.8939 71.5625 87.2782C72.5163 86.1063 73.5875 85.0351 74.7594 84.0813C76.0437 83.245 77.4115 82.5444 78.8406 81.9907C81.894 80.9624 84.6121 79.1266 86.7063 76.6782C88.3777 73.9476 89.2824 70.8169 89.325 67.6157C89.4153 66.0671 89.6645 64.532 90.0688 63.0344C90.601 61.6536 91.2755 60.3319 92.0813 59.0907C93.9914 56.4195 95.1308 53.2748 95.375 50C95.1267 46.7353 93.9886 43.601 92.0844 40.9375ZM86.7094 55.9094C85.6589 57.5406 84.7932 59.2837 84.1281 61.1063C83.5746 63.031 83.233 65.0105 83.1094 67.0094C83.1128 69.098 82.6145 71.1568 81.6562 73.0125C80.1758 74.5135 78.3526 75.6321 76.3438 76.2719C74.4917 76.9988 72.7257 77.9284 71.0781 79.0438C69.5311 80.2524 68.1216 81.6273 66.875 83.1438C65.6348 84.8674 63.9924 86.2619 62.0906 87.2063C60.0612 87.5264 57.9848 87.3615 56.0313 86.725C54.0577 86.2232 52.0353 85.9382 50 85.875C47.9643 85.9438 45.9421 86.233 43.9688 86.7375C42.0135 87.3758 39.9346 87.5407 37.9031 87.2188C36.0029 86.2747 34.3625 84.8799 33.125 83.1563C31.8765 81.6337 30.465 80.2526 28.9156 79.0375C27.2666 77.9167 25.4985 76.9818 23.6437 76.25C21.6358 75.6083 19.8131 74.49 18.3313 72.9907C17.3738 71.1346 16.8755 69.076 16.8781 66.9875C16.755 64.9886 16.4134 63.009 15.8594 61.0844C15.1943 59.2618 14.3286 57.5188 13.2781 55.8875C12.0035 54.1534 11.1779 52.1308 10.875 50C11.1807 47.866 12.0106 45.841 13.2906 44.1063C14.3411 42.4751 15.2068 40.7321 15.8719 38.9094C16.4254 36.9847 16.767 35.0052 16.8906 33.0063C16.8872 30.9177 17.3855 28.8589 18.3437 27.0032C19.8223 25.5058 21.642 24.3894 23.6469 23.75C25.499 23.0232 27.2649 22.0935 28.9125 20.9782C30.464 19.7633 31.8767 18.381 33.125 16.8563C34.3652 15.1327 36.0076 13.7381 37.9094 12.7938C39.9388 12.4737 42.0153 12.6386 43.9688 13.275C45.9423 13.7769 47.9647 14.0619 50 14.125C52.0357 14.0563 54.0579 13.7671 56.0313 13.2625C57.9865 12.6241 60.0654 12.4591 62.0969 12.7813C63.9971 13.7254 65.6375 15.1201 66.875 16.8438C68.1235 18.3664 69.535 19.7475 71.0844 20.9625C72.7341 22.078 74.5022 23.0076 76.3563 23.7344C78.3642 24.3762 80.1869 25.4945 81.6688 26.9938C82.6265 28.8508 83.1249 30.9106 83.1219 33C83.2452 34.998 83.5868 36.9764 84.1406 38.9C84.8057 40.7227 85.6714 42.4657 86.7219 44.0969C87.9988 45.8356 88.8245 47.8639 89.125 50C88.8193 52.1341 87.9894 54.1591 86.7094 55.8938V55.9094Z" fill="white"/>
<path d="M63.5933 38.2532L44.1214 54.9407L36.7777 46.125C36.2472 45.4877 35.4854 45.0872 34.6596 45.0116C33.8339 44.936 33.0119 45.1915 32.3746 45.7219C31.7372 46.2523 31.3367 47.0142 31.2611 47.84C31.1855 48.6657 31.441 49.4877 31.9714 50.125L41.3464 61.375C41.6114 61.6936 41.9372 61.9563 42.3047 62.1479C42.6722 62.3394 43.0741 62.4559 43.4871 62.4907L43.7496 62.5C44.4948 62.4992 45.2152 62.2321 45.7808 61.7469L67.6558 42.9969C67.9851 42.7357 68.2583 42.4108 68.4592 42.0416C68.66 41.6724 68.7843 41.2665 68.8246 40.8481C68.8649 40.4298 68.8204 40.0076 68.6937 39.6068C68.5671 39.2061 68.3609 38.835 68.0875 38.5158C67.8141 38.1965 67.4792 37.9357 67.1027 37.749C66.7262 37.5622 66.3158 37.4533 65.8963 37.4288C65.4767 37.4043 65.0565 37.4646 64.6608 37.6063C64.2651 37.7479 63.902 37.9679 63.5933 38.2532Z" fill="white"/>
</svg>
